<svg width="115" height="18" viewBox="0 0 115 18" fill="none" xmlns="http://www.w3.org/2000/svg">
    <path d="M5.66 14.09C4.844 14.09 4.106 13.904 3.446 13.532C2.786 13.148 2.258 12.602 1.862 11.894C1.478 11.174 1.286 10.298 1.286 9.266C1.286 8.234 1.478 7.364 1.862 6.656C2.246 5.936 2.768 5.39 3.428 5.018C4.088 4.646 4.832 4.46 5.66 4.46C6.56 4.46 7.364 4.664 8.072 5.072C8.792 5.468 9.356 6.032 9.764 6.764C10.172 7.484 10.376 8.318 10.376 9.266C10.376 10.226 10.172 11.066 9.764 11.786C9.356 12.506 8.792 13.07 8.072 13.478C7.364 13.886 6.56 14.09 5.66 14.09ZM0.782 17.492V4.55H2.006V7.394L1.88 9.284L2.06 11.192V17.492H0.782ZM5.57 12.956C6.242 12.956 6.842 12.806 7.37 12.506C7.898 12.194 8.318 11.762 8.63 11.21C8.942 10.646 9.098 9.998 9.098 9.266C9.098 8.534 8.942 7.892 8.63 7.34C8.318 6.788 7.898 6.356 7.37 6.044C6.842 5.732 6.242 5.576 5.57 5.576C4.898 5.576 4.292 5.732 3.752 6.044C3.224 6.356 2.804 6.788 2.492 7.34C2.192 7.892 2.042 8.534 2.042 9.266C2.042 9.998 2.192 10.646 2.492 11.21C2.804 11.762 3.224 12.194 3.752 12.506C4.292 12.806 4.898 12.956 5.57 12.956ZM16.8332 14.09C15.9212 14.09 15.0992 13.886 14.3672 13.478C13.6472 13.058 13.0772 12.488 12.6572 11.768C12.2372 11.036 12.0272 10.202 12.0272 9.266C12.0272 8.318 12.2372 7.484 12.6572 6.764C13.0772 6.044 13.6472 5.48 14.3672 5.072C15.0872 4.664 15.9092 4.46 16.8332 4.46C17.7692 4.46 18.5972 4.664 19.3172 5.072C20.0492 5.48 20.6192 6.044 21.0272 6.764C21.4472 7.484 21.6572 8.318 21.6572 9.266C21.6572 10.202 21.4472 11.036 21.0272 11.768C20.6192 12.488 20.0492 13.058 19.3172 13.478C18.5852 13.886 17.7572 14.09 16.8332 14.09ZM16.8332 12.956C17.5172 12.956 18.1232 12.806 18.6512 12.506C19.1792 12.194 19.5932 11.762 19.8932 11.21C20.2052 10.646 20.3612 9.998 20.3612 9.266C20.3612 8.522 20.2052 7.874 19.8932 7.322C19.5932 6.77 19.1792 6.344 18.6512 6.044C18.1232 5.732 17.5232 5.576 16.8512 5.576C16.1792 5.576 15.5792 5.732 15.0512 6.044C14.5232 6.344 14.1032 6.77 13.7912 7.322C13.4792 7.874 13.3232 8.522 13.3232 9.266C13.3232 9.998 13.4792 10.646 13.7912 11.21C14.1032 11.762 14.5232 12.194 15.0512 12.506C15.5792 12.806 16.1732 12.956 16.8332 12.956ZM27.2544 14.09C26.3664 14.09 25.6824 13.85 25.2024 13.37C24.7224 12.89 24.4824 12.212 24.4824 11.336V2.462H25.7604V11.264C25.7604 11.816 25.8984 12.242 26.1744 12.542C26.4624 12.842 26.8704 12.992 27.3984 12.992C27.9624 12.992 28.4304 12.83 28.8024 12.506L29.2524 13.424C29.0004 13.652 28.6944 13.82 28.3344 13.928C27.9864 14.036 27.6264 14.09 27.2544 14.09ZM22.7904 5.612V4.55H28.6404V5.612H22.7904ZM35.2589 14.09C34.2749 14.09 33.4109 13.886 32.6669 13.478C31.9229 13.058 31.3409 12.488 30.9209 11.768C30.5009 11.036 30.2909 10.202 30.2909 9.266C30.2909 8.33 30.4889 7.502 30.8849 6.782C31.2929 6.062 31.8449 5.498 32.5409 5.09C33.2489 4.67 34.0409 4.46 34.9169 4.46C35.8049 4.46 36.5909 4.664 37.2749 5.072C37.9709 5.468 38.5169 6.032 38.9129 6.764C39.3089 7.484 39.5069 8.318 39.5069 9.266C39.5069 9.326 39.5009 9.392 39.4889 9.464C39.4889 9.524 39.4889 9.59 39.4889 9.662H31.2629V8.708H38.8049L38.3009 9.086C38.3009 8.402 38.1509 7.796 37.8509 7.268C37.5629 6.728 37.1669 6.308 36.6629 6.008C36.1589 5.708 35.5769 5.558 34.9169 5.558C34.2689 5.558 33.6869 5.708 33.1709 6.008C32.6549 6.308 32.2529 6.728 31.9649 7.268C31.6769 7.808 31.5329 8.426 31.5329 9.122V9.32C31.5329 10.04 31.6889 10.676 32.0009 11.228C32.3249 11.768 32.7689 12.194 33.3329 12.506C33.9089 12.806 34.5629 12.956 35.2949 12.956C35.8709 12.956 36.4049 12.854 36.8969 12.65C37.4009 12.446 37.8329 12.134 38.1929 11.714L38.9129 12.542C38.4929 13.046 37.9649 13.43 37.3289 13.694C36.7049 13.958 36.0149 14.09 35.2589 14.09ZM46.9322 4.46C47.7002 4.46 48.3722 4.61 48.9482 4.91C49.5362 5.198 49.9922 5.642 50.3162 6.242C50.6522 6.842 50.8202 7.598 50.8202 8.51V14H49.5422V8.636C49.5422 7.64 49.2902 6.89 48.7862 6.386C48.2942 5.87 47.5982 5.612 46.6982 5.612C46.0262 5.612 45.4382 5.75 44.9342 6.026C44.4422 6.29 44.0582 6.68 43.7822 7.196C43.5182 7.7 43.3862 8.312 43.3862 9.032V14H42.1082V4.55H43.3322V7.142L43.1342 6.656C43.4342 5.972 43.9142 5.438 44.5742 5.054C45.2342 4.658 46.0202 4.46 46.9322 4.46ZM57.2602 14.09C56.3722 14.09 55.6882 13.85 55.2082 13.37C54.7282 12.89 54.4882 12.212 54.4882 11.336V2.462H55.7662V11.264C55.7662 11.816 55.9042 12.242 56.1802 12.542C56.4682 12.842 56.8762 12.992 57.4042 12.992C57.9682 12.992 58.4362 12.83 58.8082 12.506L59.2582 13.424C59.0062 13.652 58.7002 13.82 58.3402 13.928C57.9922 14.036 57.6322 14.09 57.2602 14.09ZM52.7962 5.612V4.55H58.6462V5.612H52.7962ZM61.5847 14V4.55H62.8627V14H61.5847ZM62.2327 2.462C61.9687 2.462 61.7467 2.372 61.5667 2.192C61.3867 2.012 61.2967 1.796 61.2967 1.544C61.2967 1.292 61.3867 1.082 61.5667 0.913999C61.7467 0.733999 61.9687 0.643999 62.2327 0.643999C62.4967 0.643999 62.7187 0.727999 62.8987 0.895999C63.0787 1.064 63.1687 1.274 63.1687 1.526C63.1687 1.79 63.0787 2.012 62.8987 2.192C62.7307 2.372 62.5087 2.462 62.2327 2.462ZM74.8917 14.09C73.9917 14.09 73.1817 13.886 72.4617 13.478C71.7537 13.07 71.1957 12.506 70.7877 11.786C70.3797 11.054 70.1757 10.214 70.1757 9.266C70.1757 8.306 70.3797 7.466 70.7877 6.746C71.1957 6.026 71.7537 5.468 72.4617 5.072C73.1817 4.664 73.9917 4.46 74.8917 4.46C75.7197 4.46 76.4577 4.646 77.1057 5.018C77.7657 5.39 78.2877 5.936 78.6717 6.656C79.0677 7.364 79.2657 8.234 79.2657 9.266C79.2657 10.286 79.0737 11.156 78.6897 11.876C78.3057 12.596 77.7837 13.148 77.1237 13.532C76.4757 13.904 75.7317 14.09 74.8917 14.09ZM74.9817 12.956C75.6537 12.956 76.2537 12.806 76.7817 12.506C77.3217 12.194 77.7417 11.762 78.0417 11.21C78.3537 10.646 78.5097 9.998 78.5097 9.266C78.5097 8.522 78.3537 7.874 78.0417 7.322C77.7417 6.77 77.3217 6.344 76.7817 6.044C76.2537 5.732 75.6537 5.576 74.9817 5.576C74.3217 5.576 73.7277 5.732 73.1997 6.044C72.6717 6.344 72.2517 6.77 71.9397 7.322C71.6277 7.874 71.4717 8.522 71.4717 9.266C71.4717 9.998 71.6277 10.646 71.9397 11.21C72.2517 11.762 72.6717 12.194 73.1997 12.506C73.7277 12.806 74.3217 12.956 74.9817 12.956ZM78.5457 14V11.156L78.6717 9.248L78.4917 7.34V0.643999H79.7697V14H78.5457ZM83.3289 14V4.55H84.6069V14H83.3289ZM83.9769 2.462C83.7129 2.462 83.4909 2.372 83.3109 2.192C83.1309 2.012 83.0409 1.796 83.0409 1.544C83.0409 1.292 83.1309 1.082 83.3109 0.913999C83.4909 0.733999 83.7129 0.643999 83.9769 0.643999C84.2409 0.643999 84.4629 0.727999 84.6429 0.895999C84.8229 1.064 84.9129 1.274 84.9129 1.526C84.9129 1.79 84.8229 2.012 84.6429 2.192C84.4749 2.372 84.2529 2.462 83.9769 2.462ZM94.0849 14V11.912L94.0309 11.57V8.078C94.0309 7.274 93.8029 6.656 93.3469 6.224C92.9029 5.792 92.2369 5.576 91.3489 5.576C90.7369 5.576 90.1549 5.678 89.6029 5.882C89.0509 6.086 88.5829 6.356 88.1989 6.692L87.6229 5.738C88.1029 5.33 88.6789 5.018 89.3509 4.802C90.0229 4.574 90.7309 4.46 91.4749 4.46C92.6989 4.46 93.6409 4.766 94.3009 5.378C94.9729 5.978 95.3089 6.896 95.3089 8.132V14H94.0849ZM90.8269 14.09C90.1189 14.09 89.5009 13.976 88.9729 13.748C88.4569 13.508 88.0609 13.184 87.7849 12.776C87.5089 12.356 87.3709 11.876 87.3709 11.336C87.3709 10.844 87.4849 10.4 87.7129 10.004C87.9529 9.596 88.3369 9.272 88.8649 9.032C89.4049 8.78 90.1249 8.654 91.0249 8.654H94.2829V9.608H91.0609C90.1489 9.608 89.5129 9.77 89.1529 10.094C88.8049 10.418 88.6309 10.82 88.6309 11.3C88.6309 11.84 88.8409 12.272 89.2609 12.596C89.6809 12.92 90.2689 13.082 91.0249 13.082C91.7449 13.082 92.3629 12.92 92.8789 12.596C93.4069 12.26 93.7909 11.78 94.0309 11.156L94.3189 12.038C94.0789 12.662 93.6589 13.16 93.0589 13.532C92.4709 13.904 91.7269 14.09 90.8269 14.09ZM110.588 4.46C111.356 4.46 112.022 4.61 112.586 4.91C113.162 5.198 113.606 5.642 113.918 6.242C114.242 6.842 114.404 7.598 114.404 8.51V14H113.126V8.636C113.126 7.64 112.886 6.89 112.406 6.386C111.938 5.87 111.272 5.612 110.408 5.612C109.76 5.612 109.196 5.75 108.716 6.026C108.248 6.29 107.882 6.68 107.618 7.196C107.366 7.7 107.24 8.312 107.24 9.032V14H105.962V8.636C105.962 7.64 105.722 6.89 105.242 6.386C104.762 5.87 104.09 5.612 103.226 5.612C102.59 5.612 102.032 5.75 101.552 6.026C101.072 6.29 100.7 6.68 100.436 7.196C100.184 7.7 100.058 8.312 100.058 9.032V14H98.78V4.55H100.004V7.106L99.806 6.656C100.094 5.972 100.556 5.438 101.192 5.054C101.84 4.658 102.602 4.46 103.478 4.46C104.402 4.46 105.188 4.694 105.836 5.162C106.484 5.618 106.904 6.308 107.096 7.232L106.592 7.034C106.868 6.266 107.354 5.648 108.05 5.18C108.758 4.7 109.604 4.46 110.588 4.46Z" fill="#FF5B50"/>
    <path d="M-1 16.25H116.096V17.15H-1V16.25Z" fill="#FF5B50"/>
</svg>
